PathFileType	4	(X/Y/Z)	Apose_0-50.trc
DataRate	CameraRate	NumFrames	NumMarkers	Units	OrigDataRate	OrigDataStartFrame	OrigNumFrames
30	30	9	22	m	30	20	50
Frame#	Time	Hip			RHip			RKnee			RAnkle			RBigToe			RSmallToe			RHeel			LHip			LKnee			LAnkle			LBigToe			LSmallToe			LHeel			Neck			Head			Nose			RShoulder			RElbow			RWrist			LShoulder			LElbow			LWrist		
		X1	Y1	Z1	X2	Y2	Z2	X3	Y3	Z3	X4	Y4	Z4	X5	Y5	Z5	X6	Y6	Z6	X7	Y7	Z7	X8	Y8	Z8	X9	Y9	Z9	X10	Y10	Z10	X11	Y11	Z11	X12	Y12	Z12	X13	Y13	Z13	X14	Y14	Z14	X15	Y15	Z15	X16	Y16	Z16	X17	Y17	Z17	X18	Y18	Z18	X19	Y19	Z19	X20	Y20	Z20	X21	Y21	Z21	X22	Y22	Z22
21	0.7	0.038379903790306306	0.9203166333807222	0.35496715972718174	0.03174476320035963	0.8898300780377683	0.47205020154027566	0.0043778338165371845	0.511484213216192	0.5014831895967452	-0.004870096583234024	0.10533457110207477	0.5170253069953624	0.20039218813208134	0.04210909125082378	0.5647158719233973	0.1469947250482289	0.04112558709581667	0.6168555756386833	-0.037640046463295135	0.03940970174924541	0.4989017327103728	0.03045041730762601	0.8885416193610722	0.24537902295026118	0.016008825719314702	0.5131081073489552	0.2249887732307196	0.0047407067199061155	0.10997166505520746	0.20712585413260473	0.21704096375400483	0.04527731466108846	0.18412239779756107	0.16692028133960174	0.04187430996407216	0.13097849483039584	-0.03096780282532101	0.04582502705185869	0.2260794712322956	0.06902706930325436	1.5889794373196575	0.35309651708195505	0.24835195929155013	1.7547885462721686	0.33181795141455694	0.2358092748800487	1.5785335234699283	0.32480435265183033	0.028557499736204126	1.4930318549322632	0.5372574517366433	0.059912891548184966	1.2414693643664332	0.7132882613472021	0.12086474704314816	1.0505728750015826	0.8913795512672406	0.016140033703228657	1.4776441937370948	0.14006279698623358	0.02055993130886664	1.2271824418305561	0.002843298087925568	0.07587193306173208	1.0163066674513408	-0.14613693336775152
22	0.7333333333333333	0.041415231806669756	0.9195470412632457	0.3573890354669756	0.031126526797476503	0.8877503981108422	0.47106337165039325	0.005152715137540018	0.5118281429181742	0.5006834228712914	-0.00442288000787116	0.10612237663839169	0.5161053047721711	0.20141205688364067	0.042795068311395096	0.5635175442174678	0.14628906352182391	0.03974321528066654	0.61646092718885	-0.03839162727910552	0.03827985884090657	0.4991811694372257	0.030324745504943813	0.887790919749517	0.24489771857862477	0.01602422448753934	0.5121488385163622	0.223885430330307	0.003843920428921642	0.11097146203652772	0.20797607365479845	0.21825853592573874	0.04372994772592561	0.18254864204890006	0.1657613178244349	0.04176215455130342	0.13141420703941173	-0.0299405930725099	0.046250240714624656	0.22533602317762122	0.06967209911767673	1.5891593126731187	0.3524267307914962	0.2463167262067467	1.7676127351765578	0.33384679075342544	0.2366493717481462	1.58103121620487	0.32421471501892735	0.028640812304771012	1.4917740963052712	0.535957466145204	0.06039429071353121	1.241736622282084	0.7124124060421485	0.12280986461752	1.0494083338144722	0.8893600285006078	0.0138478207796444	1.478069626225026	0.14180014773023958	0.021157492150893693	1.2261225404280107	0.0013518981790844001	0.07700976860696034	1.0168941416915496	-0.1472685425447655
23	0.7666666666666667	0.04029060166521029	0.9184127680384452	0.35670723945155425	0.0315189645189548	0.8878990047474967	0.47204038289576994	0.0072758411584127325	0.5094189774710404	0.500720775569224	-0.004746402461647298	0.10485205569266144	0.5172529518992877	0.20402805813998395	0.04383439751470005	0.5621020506361478	0.14653561554297131	0.040810163030845545	0.6172102648497121	-0.03757042101731575	0.03886019504405964	0.49913876868314627	0.0315465371429727	0.8876675188158085	0.2461962657883374	0.01692919261917215	0.5128696044943295	0.22385893741366716	-0.001379375399466989	0.11704972170130146	0.21076852418683228	0.21653195104467668	0.043567203957348415	0.18398110109058333	0.16572834111715568	0.04206443506093492	0.13129804325610483	-0.03009914960510977	0.047186330307492606	0.22550964405577198	0.07008893864447115	1.589609596228149	0.3533682608574947	0.24608564115881978	1.7590075211278182	0.3347892923324748	0.2363071423601596	1.5790229605264323	0.32490337088292387	0.028964627671859696	1.4921758328746757	0.5371092872786725	0.06022045649318546	1.2407055554648654	0.7136721534551352	0.12492972551080311	1.049247107908187	0.8894277915617954	0.014122624927975712	1.47551639583131	0.14245243629096135	0.02425681549678624	1.225298072941135	-0.001278824798232088	0.08161517351800582	1.0165726105611972	-0.14896041363088475
24	0.8	0.04127569104198727	0.9181178239441083	0.3578003687961087	0.03132031421927407	0.8876579537514098	0.47180769288313945	0.00685418375251485	0.509115057678357	0.5002636944526996	-0.005257799473930851	0.10448716135966796	0.5172067507335136	0.2017300116338281	0.043252322169493304	0.5636290306452681	0.14665125235509366	0.04026230696922945	0.6166111476249327	-0.038058270189123417	0.03845418179959139	0.49904940666552156	0.0312819499678491	0.8874918635384439	0.24592948652918784	0.01784750935544983	0.5106828272396902	0.22277031070218642	0.003324365207449204	0.11169951920579538	0.20774477718134662	0.21769477672336404	0.045429369736783506	0.1831807401596248	0.16583216017292818	0.041644639574768154	0.13124899438959087	-0.0305248883402449	0.04677877676524131	0.2250612317878967	0.06962581375578629	1.5894926069190831	0.35280041769755965	0.24650162903915016	1.7589679325483207	0.33450776970549073	0.23684244300788554	1.5809327084764004	0.32524863708841834	0.025664868981912968	1.4921690447850655	0.533926899475936	0.06039987844107021	1.2417264984877634	0.7132902550581347	0.12285262910695212	1.0492553095387007	0.890355184753382	0.015050756979482487	1.477961434354867	0.1439612797175334	0.02211370149892047	1.2264123108047456	0.000566886987839487	0.08165954663845659	1.0162884525364362	-0.14962786704347295
25	0.8333333333333334	0.039199969954777515	0.920592359057534	0.3547102559179775	0.03178799178954364	0.8857423442793869	0.46527275522772416	0.005339991832169379	0.5071373034329316	0.49790800363899096	-0.010181609236684682	0.10471431732894039	0.5177071512253637	0.20286024411011738	0.043521922244969466	0.5618551577874394	0.143198512620555	0.040050444145867406	0.6158941633225833	-0.041067699794780546	0.03797454079042983	0.5012529034269452	0.034047651944850175	0.8860142518871372	0.24440687063011496	0.018264562365762137	0.5089994228869272	0.22435387896888406	0.006809654890747312	0.11079987269672853	0.21041179690855513	0.21819437641307163	0.04651409564758764	0.1825686762362747	0.16565514529810194	0.044446853764465805	0.1312385973329851	-0.03258104912455291	0.04882432296112135	0.22645511879645716	0.06766462153784229	1.5913018221211852	0.3525175801893818	0.24121016981976542	1.7575912444149628	0.3347593531955601	0.24263185853972807	1.5840958930969333	0.32488705746532465	0.026146476738615	1.4924289363636687	0.5366475551209424	0.06071567601544746	1.2384912196685511	0.7124866088014599	0.12492487780057387	1.0481292522249785	0.8900578218758033	0.015246366076741352	1.478307338973278	0.14269551632872415	0.024639236214156774	1.224200023005378	0.000739569516610027	0.08046137219970421	1.0200511544033335	-0.1491338064977311
26	0.8666666666666667	0.039625958642611786	0.9210379089245644	0.354712913055601	0.03396195330471152	0.8861684375585805	0.46663560436853624	0.005694204798820217	0.5077589008295991	0.4977557871133372	-0.006857621985608007	0.1055105834457678	0.5150251421851799	0.20224317879982714	0.04219039073990017	0.5622641161312087	0.1464828189522908	0.040805621747977	0.6134407693679144	-0.04886065538106613	0.046028309503259965	0.5073649743406231	0.03467460343133023	0.8864544256959875	0.24439503497812629	0.018942680256715038	0.5095650903448785	0.22428233357631439	0.005783903939199992	0.11181594344645351	0.21191181774694243	0.2170892774060517	0.04626434267296289	0.18413814073037496	0.16525348264804857	0.042316564368872975	0.13276557713581727	-0.032036409534860734	0.0494659248292751	0.22630084667215167	0.052737207667525356	1.5731991540912984	0.34763932427414423	0.2418011886120281	1.757920244310042	0.33473767645330954	0.24037563242452456	1.584058868044736	0.32781645707573714	0.024137718427786035	1.4915182431046068	0.537258140906884	0.06072602701622418	1.238971774993732	0.7122677356832394	0.12375779560260053	1.0506811442054829	0.8897825155653863	0.01945130654747372	1.4773116424717114	0.13915146531033026	0.023845571653564115	1.2248917374393675	-0.0031551996609809198	0.08092625951908469	1.0148043903033235	-0.14955240135889314
27	0.9	0.040207839547229215	0.9199129351804615	0.3544471649159229	0.034578431487681076	0.8852076291822634	0.46654756651142787	0.005711067953219105	0.5080454389603284	0.4982027474607277	-0.006877855951973598	0.10554429986526974	0.5153633370395628	0.20161467506272812	0.0440812025572978	0.5637083000025923	0.14250831709769635	0.02582556956357733	0.621217684382018	-0.05054612584162912	0.048284183569800174	0.5068302430433589	0.033648058531095114	0.8854220971856449	0.245501808056534	0.018974691847970387	0.5096864814122443	0.22451348069359245	0.005802407242027179	0.11377779064337613	0.20969439519323588	0.21468280483260962	0.04612702959656267	0.18215681757181545	0.1645908017729334	0.04282138428936715	0.12885202564961834	-0.03209030368651969	0.04953926595133253	0.22662222939923324	0.05277482807985403	1.5732498513990623	0.347828381307232	0.239165735656167	1.772147717214952	0.33229093290540873	0.23775854036583052	1.5838313519034377	0.3254167213969855	0.02417433988610009	1.4919963319746208	0.5377240609618307	0.06072955040792085	1.2393734406127157	0.7127684914165928	0.12419891611880221	1.0478058260191456	0.8902849664670033	0.020397261602300956	1.48012542188285	0.14121954312944576	0.026756600467128196	1.2249281069958107	-0.0002370651825283966	0.08100849724050867	1.0147845054602629	-0.14942778225752737
28	0.9333333333333333	0.041596948869319826	0.9191097071659841	0.3554228792825345	0.03400217108481629	0.8843560765677325	0.4674197800114338	0.005582513222555962	0.5083151736844336	0.4977764795385467	-0.006534022692855313	0.1055445350234712	0.5148211669803385	0.20238820916506792	0.04196087731516645	0.5622886727185618	0.1429619274996064	0.02575186022539633	0.620698931517716	-0.05076766836090039	0.048331324269551036	0.506433425144933	0.03524132793387654	0.8844103344801957	0.2455471554809524	0.01880836738649314	0.5082318230631921	0.22347735586160633	0.003913494213294432	0.11420149367287295	0.2107746419463169	0.21506524442848649	0.0462199176369217	0.18184523015288384	0.163224235077471	0.04226560800644454	0.13049091439299587	-0.032241860410912065	0.049611792535692256	0.2261041183959779	0.06986023980909009	1.5899105863461223	0.35449329675531027	0.23857610004672658	1.7726363639640932	0.33196920832192073	0.23775019434630051	1.5844663618230626	0.32570543205810537	0.025600368183667326	1.4923880053600118	0.5359705073632502	0.05878247040364133	1.2398685129270415	0.7109135525830377	0.12778590502782294	1.0512481494027461	0.8912036344271426	0.02016612709351196	1.4792735099331766	0.14133471625293315	0.026095005731523607	1.2241425812595574	-0.0010153377137048908	0.08150784150487514	1.0211672148756763	-0.14970014740226392
29	0.9666666666666667	0.04095463532495894	0.9186034733014361	0.3539162458387132	0.03398604156935836	0.8850279445701771	0.4676642781636099	0.004250341718426722	0.5056863312031524	0.5004408920089515	-0.008279198877804877	0.10573034135680617	0.5168689351617642	0.20180188289446246	0.04254040158779421	0.5634850920894529	0.1437458458220841	0.02602955838417706	0.620597484096652	-0.04118909069543429	0.03949989908200192	0.49864799638686563	0.03409276496275361	0.8839138704369688	0.24478717028149924	0.01966940592424565	0.5086983287898206	0.22294334147300016	0.0071806154491064565	0.11195950329338944	0.21016317576190774	0.21503199300829873	0.04627914885962511	0.1824671297010899	0.16307405165541297	0.04256257123696891	0.1305161677512227	-0.03256943632937908	0.0501001000026216	0.22600252594927786	0.07147295451219567	1.5905100640490284	0.3533709722099351	0.23759144416184957	1.7738109905129424	0.33305606779996	0.2371591837941615	1.5855010745921345	0.321397655648309	0.025090441103270866	1.4918391984641777	0.5360912488158018	0.06495578689515685	1.2402742447354818	0.7140028002940773	0.12543079194124584	1.0473586736027376	0.8927115358220766	0.018293906016786904	1.478772033743413	0.14273832488140809	0.027814172200935405	1.224918725657859	-0.002249485570685743	0.07823193887624119	1.0186095546338136	-0.1475384625155881
